<svg xmlns="http://www.w3.org/2000/svg" viewBox="0 0 64 64" role="img" aria-label="Sarasvi">
  <circle cx="32" cy="32" r="32" fill="#FBF6EE"/>
  <circle cx="32" cy="32" r="29.5" fill="none" stroke="#CBA956" stroke-width="2" opacity=".6"/>
  <g fill="#669988">
    <path d="M32 41 C40 34.5 40 24 32 17.5 C24 24 24 34.5 32 41 Z" transform="rotate(-55 32 41)"/>
    <path d="M32 41 C40 34.5 40 24 32 17.5 C24 24 24 34.5 32 41 Z" transform="rotate(55 32 41)"/>
  </g>
  <g fill="#002244">
    <path d="M32 41 C40 34.5 40 24 32 17.5 C24 24 24 34.5 32 41 Z" transform="rotate(-27 32 41)"/>
    <path d="M32 41 C40 34.5 40 24 32 17.5 C24 24 24 34.5 32 41 Z" transform="rotate(27 32 41)"/>
    <path d="M32 41 C39.5 35 39.5 25.5 32 19.5 C24.5 25.5 24.5 35 32 41 Z"/>
  </g>
  <circle cx="32" cy="38.6" r="3" fill="#CBA956"/>
  <path d="M21 47.5 h22" stroke="#CBA956" stroke-width="2.2" stroke-linecap="round" opacity=".85"/>
</svg>
